<?xml version="1.0" encoding="utf-8"?>
<!-- Generator: Adobe Illustrator 19.0.0, SVG Export Plug-In . SVG Version: 6.00 Build 0)  -->
<svg version="1.1" id="Layer_1" xmlns="http://www.w3.org/2000/svg" xmlns:xlink="http://www.w3.org/1999/xlink" x="0px" y="0px"
	 viewBox="0 0 180 196.8" style="enable-background:new 0 0 180 196.8;" xml:space="preserve">
<style type="text/css">
	.st0{fill:#066641;stroke:#FFFFFF;stroke-miterlimit:10;}
</style>
<path class="st0" d="M89,30h2c5.5,0,10-4.5,10-10V10c0-5.5-4.5-10-10-10h-2c-5.5,0-10,4.5-10,10v10C79,25.5,83.5,30,89,30z"/>
<path class="st0" d="M119.6,69.5h-61c-5.3,0-9.5-4.3-9.5-9.5v-1c0-5.3,4.3-9.5,9.5-9.5h61c5.3,0,9.5,4.3,9.5,9.5v1
	C129.1,65.2,124.9,69.5,119.6,69.5z"/>
<path class="st0" d="M139.3,112.1H39c-5.4,0-9.8-4.4-9.8-9.8v-0.4c0-5.4,4.4-9.8,9.8-9.8h100.4c5.4,0,9.8,4.4,9.8,9.8v0.4
	C149.1,107.7,144.7,112.1,139.3,112.1z"/>
<path class="st0" d="M149.3,155H29c-5.4,0-9.8-4.4-9.8-9.8v-0.4c0-5.4,4.4-9.8,9.8-9.8h120.4c5.4,0,9.8,4.4,9.8,9.8v0.4
	C159.1,150.6,154.7,155,149.3,155z"/>
<path class="st0" d="M170.2,196.8H9.8c-5.4,0-9.8-4.4-9.8-9.8l0-0.4c0-5.4,4.4-9.8,9.8-9.8h160.4c5.4,0,9.8,4.4,9.8,9.8v0.4
	C180,192.4,175.6,196.8,170.2,196.8z"/>
</svg>
